<?xml version="1.0" encoding="utf-8"?>
<svg viewBox="204.895 119.065 100 101" width="100" height="101" xmlns="http://www.w3.org/2000/svg">
  <rect x="213.677" y="168.335" width="83.227" height="3.322" style="stroke: rgb(0, 0, 0); stroke-width: 5px;" rx="1.661" ry="1.661" transform="matrix(0.9999999999999999, 0, 0, 0.9999999999999999, 7.105427357601002e-15, 0)"/>
  <path style="stroke: rgb(0, 0, 0); fill-rule: nonzero; paint-order: fill; fill: rgba(0, 0, 0, 0); stroke-dashoffset: -50px; stroke-miterlimit: 1; stroke-width: 7px;" d="M 232.775 170.96 C 232.656 141.346 276.859 140.276 277.051 170.96" transform="matrix(0.9999999999999999, 0, 0, 0.9999999999999999, 7.105427357601002e-15, 0)"/>
  <line style="stroke-linecap: round; fill-rule: nonzero; fill: rgba(168, 120, 159, 0.82); paint-order: fill; stroke-width: 7px; stroke: rgb(248, 175, 110);" x1="280.652" y1="151.908" x2="290.282" y2="144.749" transform="matrix(0.9999999999999999, 0, 0, 0.9999999999999999, 7.105427357601002e-15, 0)"/>
  <line style="stroke-linecap: round; fill-rule: nonzero; fill: rgba(168, 120, 159, 0.82); paint-order: fill; stroke-width: 7px; stroke: rgb(248, 175, 110); transform-origin: 254.744px 133.771px;" x1="254.741" y1="139.771" x2="254.747" y2="127.771" transform="matrix(-1, 2.2e-11, 4.3e-11, -0.999999999987, 0.000003792051, 0.000032503409)"/>
  <line style="stroke-linecap: round; fill-rule: nonzero; fill: rgba(168, 120, 159, 0.82); paint-order: fill; stroke-width: 7px; stroke: rgb(248, 175, 110); transform-origin: 224.812px 147.478px;" x1="219.866" y1="144.082" x2="229.759" y2="150.874" transform="matrix(-1, 0, 0, -1, 0.000003349976, 0.000032715174)"/>
  <polyline style="stroke: rgb(0, 0, 0); stroke-linecap: round; fill: rgba(0, 0, 0, 0); stroke-width: 7px; stroke-miterlimit: 8.66; transform-origin: 255.141px 187.089px;" points="247.008 183.966 255.467 190.603 263.275 183.575" transform="matrix(-1, 0, 0, -1, 0.00000380191, 0.000002787834)"/>
  <polyline style="fill: rgb(216, 216, 216); stroke: rgb(0, 0, 0); stroke-linecap: round; stroke-width: 7px; transform-origin: 254.98px 201.152px;" points="254.928 191.257 255.032 211.048" transform="matrix(-1, 1e-12, 1e-12, -1.000000000002, 0.000003799103, 0.000002997395)"/>
  <rect rx="5" ry="5" style="fill: rgba(0, 0, 0, 0); stroke: rgba(0, 0, 0, 0);" height="101" x="204.895" y="119.065" width="100" transform="matrix(0.9999999999999999, 0, 0, 0.9999999999999999, 7.105427357601002e-15, 0)"/>
</svg>